<?xml version="1.0" encoding="UTF-8" standalone="no"?>
<svg
   xmlns:dc="http://purl.org/dc/elements/1.1/"
   xmlns:cc="http://creativecommons.org/ns#"
   xmlns:rdf="http://www.w3.org/1999/02/22-rdf-syntax-ns#"
   xmlns:svg="http://www.w3.org/2000/svg"
   xmlns="http://www.w3.org/2000/svg"
   xmlns:sodipodi="http://sodipodi.sourceforge.net/DTD/sodipodi-0.dtd"
   xmlns:inkscape="http://www.inkscape.org/namespaces/inkscape"
   version="1.0"
   width="48"
   height="48"
   viewBox="0 0 38.4 38.399999"
   preserveAspectRatio="xMidYMid meet"
   id="svg2"
   inkscape:version="0.91 r13725"
   sodipodi:docname="menuGlobal.svg">
  <defs
     id="defs16" />
  <sodipodi:namedview
     pagecolor="#57ffff"
     bordercolor="#666666"
     borderopacity="1"
     objecttolerance="10"
     gridtolerance="10"
     guidetolerance="10"
     inkscape:pageopacity="0"
     inkscape:pageshadow="2"
     inkscape:window-width="1920"
     inkscape:window-height="1176"
     id="namedview14"
     showgrid="false"
     borderlayer="false"
     fit-margin-top="0"
     fit-margin-left="0"
     fit-margin-right="0"
     fit-margin-bottom="0"
     inkscape:zoom="2.8105634"
     inkscape:cx="-111.89548"
     inkscape:cy="-37.625156"
     inkscape:window-x="0"
     inkscape:window-y="24"
     inkscape:window-maximized="1"
     inkscape:current-layer="svg2"
     units="px" />
  <metadata
     id="metadata4">
Created by potrace 1.13, written by Peter Selinger 2001-2015
<rdf:RDF>
  <cc:Work
     rdf:about="">
    <dc:format>image/svg+xml</dc:format>
    <dc:type
       rdf:resource="http://purl.org/dc/dcmitype/StillImage" />
    <dc:title></dc:title>
  </cc:Work>
</rdf:RDF>
</metadata>
  <g
     transform="matrix(0.00997833,0,0,-0.00888509,0.36962839,36.323728)"
     id="g6"
     style="fill:#ffffff;stroke:none">
    <path
       d="m 2058,3683 c -2,-5 -2,-99 0,-211 l 4,-203 71,-48 c 88,-59 278,-231 370,-335 38,-42 73,-76 79,-76 31,0 -46,189 -164,399 -83,149 -241,390 -291,444 -32,35 -61,47 -69,30 z"
       id="path8"
       inkscape:connector-curvature="0" />
    <path
       d="m 1603,3343 c -3,-8 10,-49 30,-91 82,-177 119,-310 121,-430 1,-78 -1,-85 -25,-106 -14,-12 -75,-40 -135,-61 -154,-55 -379,-170 -539,-276 -198,-131 -465,-396 -465,-461 0,-23 2,-22 188,92 127,77 296,150 467,200 145,42 209,55 225,45 7,-4 3,-19 -11,-42 -13,-20 -18,-38 -13,-43 6,-6 49,-1 104,11 604,129 974,119 1550,-42 79,-22 166,-43 192,-46 60,-7 94,13 103,61 26,135 -308,385 -709,531 -31,11 -78,44 -129,89 -305,274 -555,443 -790,535 -109,43 -157,53 -164,34 z"
       id="path10"
       inkscape:connector-curvature="0" />
    <path
       d="M 706,1882 C 559,1783 446,1648 410,1531 316,1230 573,965 1070,851 c 143,-33 160,-40 171,-69 13,-33 -8,-218 -27,-249 -8,-12 -34,-31 -59,-42 -55,-24 -69,-61 -36,-94 21,-21 29,-22 245,-22 206,0 226,2 245,19 38,34 26,78 -30,107 -47,23 -54,45 -44,137 15,151 25,162 145,162 121,0 141,22 142,164 1,70 -2,90 -16,104 -16,16 -19,14 -61,-30 -63,-68 -147,-79 -162,-20 -7,30 13,273 28,327 14,48 41,57 162,53 110,-3 127,-13 127,-73 0,-61 48,-93 100,-65 49,26 63,231 18,262 -7,5 -170,8 -383,5 -397,-4 -426,-7 -433,-54 -5,-32 15,-62 46,-69 15,-4 33,-11 40,-17 15,-12 15,-124 -1,-262 -12,-96 -13,-100 -42,-114 -26,-13 -42,-13 -125,2 -291,49 -520,178 -597,335 -24,48 -28,70 -28,137 0,70 4,89 32,145 62,126 122,171 148,113 5,-13 13,-23 17,-23 9,0 82,122 103,173 14,35 14,37 -2,37 -10,-1 -49,-22 -87,-48 z"
       id="path12"
       inkscape:connector-curvature="0" />
  </g>
</svg>
